<?xml version="1.0" encoding="utf-8"?>
<!-- Generator: Adobe Illustrator 18.0.0, SVG Export Plug-In . SVG Version: 6.00 Build 0)  -->
<!DOCTYPE svg PUBLIC "-//W3C//DTD SVG 1.1//EN" "http://www.w3.org/Graphics/SVG/1.1/DTD/svg11.dtd">
<svg version="1.1" id="Layer_1" xmlns="http://www.w3.org/2000/svg" xmlns:xlink="http://www.w3.org/1999/xlink" x="0px" y="0px"
	 viewBox="0 0 792 792" enable-background="new 0 0 792 792" xml:space="preserve">
<rect fill="#333333" width="792" height="792"/>
<g>
	<g>
		<g>
			<path fill="#FFFFFF" d="M61.8,380.3c-15.8,0-30.6-3.3-43.8-9.5l4.8-30.4c13.4,6.9,24.5,10.8,35.6,10.8c9.3,0,14.5-4.6,14.5-11.7
				c0-8.5-5.4-13.9-21.7-24.5C35.4,304.8,20,292.2,20,270.1c0-25.8,17.6-42.9,44.7-42.9c15.2,0,25.4,2.6,35.8,7.4l-4.6,30.6
				c-11.1-6.5-19.7-8.9-28.4-8.9c-7.4,0-11.9,4.8-11.9,10.4c0,7.2,5.2,11.9,20.6,21.7c16.7,10.6,32.3,24.3,32.3,47.9
				C108.5,364.2,89.6,380.3,61.8,380.3z"/>
			<path fill="#FFFFFF" d="M121.3,378.5V228.9h36v149.7H121.3z"/>
			<path fill="#FFFFFF" d="M282.9,378.5l-3.7-105.4l-18,105.6h-34.9L208,273.1l-3.9,105.4h-31.2l5.9-149.7h48.8l17.4,99.6l17.6-99.6
				h48.6l6.1,149.7H282.9z"/>
			<path fill="#FFFFFF" d="M369.9,328.9h-2.6v49.7h-35.1V228.9h38.4c33.2,0,55.3,15.2,55.3,49.5
				C425.8,311.9,404.3,328.2,369.9,328.9z M370.3,256.4h-3.5v44.9h3c14.1,0,22.3-6.3,22.3-22.6C392.2,262.9,384.2,256.4,370.3,256.4
				z"/>
			<path fill="#FFFFFF" d="M436.9,378.5V228.9h35.8v118h35.1l5.2,31.7H436.9z"/>
			<path fill="#FFFFFF" d="M523.5,378.5V228.9h36v149.7H523.5z"/>
			<path fill="#FFFFFF" d="M614.1,259.4v30.4h27.8l5,31h-32.8v57.7h-35.6V228.9h75.9v30.6H614.1z"/>
			<path fill="#FFFFFF" d="M732.1,325v53.6h-36v-52.7l-39.7-93.1l38.6-5.4l21,59.9l20.2-58.3H774L732.1,325z"/>
		</g>
		<g>
			<path fill="#F16622" d="M64.1,487.7c-11.9,0-21.3-3.8-28.1-11.3c-6.8-7.5-10.1-18-10.1-31.5c0-13.8,3.5-24.6,10.5-32.3
				c7-7.7,16.6-11.6,28.8-11.6c7.2,0,14.1,1.3,20.8,3.8l-2.1,6.8c-7.2-2.4-13.5-3.6-18.8-3.6c-10.3,0-18,3.2-23.3,9.5
				c-5.3,6.3-7.9,15.4-7.9,27.3c0,11.3,2.6,20.1,7.9,26.5c5.3,6.4,12.7,9.6,22.1,9.6c7.6,0,14.6-1.4,21.1-4.1v7.1
				C79.8,486.4,72.8,487.7,64.1,487.7z"/>
			<path fill="#F16622" d="M174.7,444.3c0,13.6-3.3,24.3-9.9,31.9c-6.6,7.7-15.7,11.5-27.4,11.5c-7.3,0-13.8-1.8-19.4-5.3
				c-5.6-3.5-9.9-8.6-12.8-15.2c-3-6.6-4.5-14.3-4.5-22.9c0-13.6,3.3-24.3,9.9-31.9c6.6-7.6,15.7-11.4,27.2-11.4
				c11.5,0,20.5,3.9,27,11.6C171.4,420.3,174.7,430.9,174.7,444.3z M108.7,444.3c0,11.5,2.5,20.4,7.6,26.9c5,6.4,12.2,9.7,21.4,9.7
				c9.2,0,16.4-3.2,21.4-9.7c5-6.4,7.6-15.4,7.6-26.9c0-11.5-2.6-20.5-7.7-26.8c-5.1-6.4-12.3-9.5-21.5-9.5
				c-9.2,0-16.3,3.2-21.3,9.5C111.2,423.7,108.7,432.7,108.7,444.3z"/>
			<path fill="#F16622" d="M302.2,486.2v-54.8c0-8.2-1.6-14.1-4.8-17.8c-3.2-3.7-8-5.6-14.6-5.6c-8.6,0-14.9,2.4-19,7.1
				c-4.1,4.7-6.2,12.1-6.2,22.2v49H250v-57.1c0-14.1-6.5-21.1-19.4-21.1c-8.8,0-15.1,2.5-19.1,7.7c-4,5.1-6,13.3-6,24.5v46.1h-7.6
				v-83.6h6.3l1.6,11.5h0.5c2.3-4.2,5.6-7.4,9.8-9.6c4.3-2.3,8.9-3.4,14.1-3.4c13.2,0,21.6,4.9,25.4,14.8h0.3c2.7-4.8,6.4-8.4,11-11
				c4.6-2.6,9.8-3.8,15.6-3.8c9.1,0,16,2.4,20.5,7.3c4.6,4.9,6.8,12.6,6.8,23.2v54.7H302.2z"/>
			<path fill="#F16622" d="M441.2,486.2v-54.8c0-8.2-1.6-14.1-4.8-17.8c-3.2-3.7-8-5.6-14.6-5.6c-8.6,0-14.9,2.4-19,7.1
				c-4.1,4.7-6.2,12.1-6.2,22.2v49H389v-57.1c0-14.1-6.5-21.1-19.4-21.1c-8.8,0-15.1,2.5-19.1,7.7c-4,5.1-6,13.3-6,24.5v46.1h-7.6
				v-83.6h6.3l1.6,11.5h0.5c2.3-4.2,5.6-7.4,9.8-9.6c4.3-2.3,8.9-3.4,14.1-3.4c13.2,0,21.6,4.9,25.4,14.8h0.3c2.7-4.8,6.4-8.4,11-11
				c4.6-2.6,9.8-3.8,15.6-3.8c9.1,0,16,2.4,20.5,7.3c4.6,4.9,6.8,12.6,6.8,23.2v54.7H441.2z"/>
			<path fill="#F16622" d="M509.6,487.7c-12.1,0-21.6-3.7-28.4-11.2c-6.8-7.5-10.2-18-10.2-31.4c0-13.3,3.3-24,9.8-32
				c6.6-8,15.4-12,26.5-12c9.8,0,17.6,3.4,23.3,10.3c5.7,6.9,8.5,16.2,8.5,28v6.2H479c0.1,11.5,2.8,20.2,8,26.3
				c5.3,6,12.8,9.1,22.6,9.1c4.8,0,9-0.3,12.6-1c3.6-0.7,8.2-2.1,13.7-4.3v6.9c-4.7,2.1-9.1,3.4-13.1,4.2
				C518.8,487.4,514.4,487.7,509.6,487.7z M507.4,407.8c-8,0-14.5,2.7-19.4,8c-4.9,5.3-7.7,13-8.5,23h51.7c0-9.7-2.1-17.3-6.3-22.7
				C520.6,410.5,514.8,407.8,507.4,407.8z"/>
			<path fill="#F16622" d="M595.2,401c3.5,0,7.3,0.4,11.4,1.1l-1.5,7.3c-3.5-0.9-7.1-1.3-10.8-1.3c-7.1,0-13,3-17.5,9.1
				c-4.6,6-6.8,13.7-6.8,22.9v46.1h-7.6v-83.6h6.5l0.8,15.1h0.5c3.4-6.1,7.1-10.5,11-13C584.9,402.2,589.6,401,595.2,401z"/>
			<path fill="#F16622" d="M656.9,487.7c-11.9,0-21.3-3.8-28.1-11.3c-6.8-7.5-10.1-18-10.1-31.5c0-13.8,3.5-24.6,10.5-32.3
				c7-7.7,16.6-11.6,28.8-11.6c7.2,0,14.1,1.3,20.8,3.8l-2.1,6.8c-7.2-2.4-13.5-3.6-18.8-3.6c-10.3,0-18,3.2-23.3,9.5
				c-5.3,6.3-7.9,15.4-7.9,27.3c0,11.3,2.6,20.1,7.9,26.5c5.3,6.4,12.7,9.6,22.1,9.6c7.6,0,14.6-1.4,21.1-4.1v7.1
				C672.6,486.4,665.6,487.7,656.9,487.7z"/>
			<path fill="#F16622" d="M732.1,487.7c-12.1,0-21.6-3.7-28.4-11.2c-6.8-7.5-10.2-18-10.2-31.4c0-13.3,3.3-24,9.8-32
				c6.6-8,15.4-12,26.5-12c9.8,0,17.6,3.4,23.3,10.3c5.7,6.9,8.5,16.2,8.5,28v6.2h-60.2c0.1,11.5,2.8,20.2,8,26.3
				c5.3,6,12.8,9.1,22.6,9.1c4.8,0,9-0.3,12.6-1c3.6-0.7,8.2-2.1,13.7-4.3v6.9c-4.7,2.1-9.1,3.4-13.1,4.2
				C741.3,487.4,736.9,487.7,732.1,487.7z M729.9,407.8c-8,0-14.5,2.7-19.4,8c-4.9,5.3-7.7,13-8.5,23h51.7c0-9.7-2.1-17.3-6.3-22.7
				C743.1,410.5,737.3,407.8,729.9,407.8z"/>
		</g>
	</g>
	<g>
		<path fill="#FFFFFF" d="M58.5,535.3c0,4.9-1.2,8.9-3.6,11.9c-2.4,3-5.6,4.5-9.8,4.5c-2.3,0-4.2-0.4-5.9-1.3
			c-1.7-0.9-3.1-2.2-4.2-4l-1,4.6h-4.8v-49.2h6.2V521c1.1-1.5,2.4-2.7,4-3.5c1.6-0.8,3.4-1.2,5.6-1.2c4.2,0,7.5,1.7,9.8,5.1
			c2.4,3.4,3.5,7.8,3.5,13.3V535.3z M52.3,534.6c0-3.9-0.7-7.1-2.2-9.6c-1.4-2.5-3.6-3.7-6.6-3.7c-1.9,0-3.5,0.5-4.8,1.4
			c-1.3,0.9-2.4,2.2-3.1,3.8v14.8c0.8,1.7,1.8,3,3.1,3.9c1.3,0.9,2.9,1.4,4.9,1.4c2.9,0,5.1-1,6.5-3.1c1.4-2.1,2.1-4.8,2.1-8.3
			V534.6z"/>
		<path fill="#FFFFFF" d="M71.4,538.4l1.1,4.3h0.2l8.4-25.8H88l-14.4,39.4c-0.9,2.3-2.1,4.3-3.7,6c-1.6,1.7-3.8,2.6-6.5,2.6
			c-0.5,0-1.1-0.1-1.9-0.2c-0.8-0.1-1.4-0.2-1.8-0.3l0.6-4.9c-0.1,0,0.2,0,1.1,0.1c0.9,0.1,1.4,0.1,1.7,0.1c1.3,0,2.4-0.6,3.3-1.8
			c0.8-1.2,1.5-2.5,2.1-3.9l1.5-3.6l-12.7-33.5h6.9L71.4,538.4z"/>
		<path fill="#FFFFFF" d="M123.5,542.5h0.2l14.7-37.3h7.7v46h-6.2v-34.4l-0.2,0l-13.9,34.5h-4.3l-14.3-35.6l-0.2,0v35.6h-6.2v-46
			h8.2L123.5,542.5z"/>
		<path fill="#FFFFFF" d="M172.1,551.1c-0.2-1-0.4-1.9-0.5-2.7c-0.1-0.8-0.2-1.6-0.2-2.4c-1.2,1.6-2.7,3-4.5,4.1
			c-1.9,1.1-3.9,1.7-6,1.7c-3.6,0-6.3-0.9-8.1-2.7c-1.9-1.8-2.8-4.3-2.8-7.5c0-3.3,1.3-5.8,4-7.7c2.6-1.8,6.2-2.8,10.8-2.8h6.8v-3.4
			c0-2-0.6-3.6-1.8-4.8c-1.2-1.2-2.9-1.8-5.2-1.8c-2,0-3.7,0.5-4.9,1.5c-1.2,1-1.9,2.2-1.9,3.6l-5.9,0.1l-0.1-0.2
			c-0.1-2.5,1-4.8,3.5-6.8c2.5-2.1,5.7-3.1,9.6-3.1c3.9,0,7,1,9.3,3c2.4,2,3.5,4.8,3.5,8.5v16.4c0,1.2,0.1,2.4,0.2,3.5
			c0.1,1.1,0.4,2.3,0.7,3.3H172.1z M161.8,546.5c2.3,0,4.3-0.6,6.1-1.7c1.8-1.2,3-2.5,3.5-4v-5.6h-7c-2.5,0-4.5,0.6-6,1.9
			c-1.5,1.3-2.3,2.7-2.3,4.4c0,1.5,0.5,2.7,1.4,3.6C158.5,546.1,159.9,546.5,161.8,546.5z"/>
		<path fill="#FFFFFF" d="M201.7,541.9c0-1.4-0.5-2.5-1.6-3.3c-1-0.9-3-1.6-5.9-2.3c-4-0.9-7.1-2.1-9.3-3.6
			c-2.2-1.6-3.2-3.6-3.2-6.3c0-2.8,1.2-5.2,3.6-7.1c2.4-2,5.4-3,9.2-3c3.9,0,7,1.1,9.4,3.2c2.4,2.1,3.5,4.6,3.4,7.4l-0.1,0.2h-5.9
			c0-1.5-0.6-2.8-1.9-4c-1.3-1.2-2.9-1.8-4.9-1.8c-2.2,0-3.8,0.5-4.9,1.5c-1.1,1-1.6,2.2-1.6,3.5c0,1.3,0.5,2.4,1.4,3.1
			c0.9,0.7,2.9,1.4,5.8,2c4.2,0.9,7.4,2.1,9.5,3.8c2.2,1.6,3.3,3.7,3.3,6.3c0,3-1.2,5.5-3.7,7.4c-2.5,1.9-5.7,2.9-9.6,2.9
			c-4.4,0-7.8-1.1-10.3-3.3c-2.5-2.2-3.7-4.8-3.6-7.7l0.1-0.2h5.9c0.1,2.2,0.9,3.8,2.5,4.8c1.5,1,3.3,1.5,5.4,1.5
			c2.2,0,3.9-0.5,5.2-1.4C201,544.5,201.7,543.3,201.7,541.9z"/>
		<path fill="#FFFFFF" d="M219.4,508.7v8.2h6.5v4.6h-6.5v20.7c0,1.6,0.3,2.7,1,3.4c0.7,0.7,1.5,1,2.6,1c0.4,0,0.8,0,1.2-0.1
			c0.4-0.1,0.8-0.2,1.1-0.3l0.9,4.3c-0.5,0.4-1.1,0.7-2.1,0.9c-0.9,0.2-1.8,0.4-2.7,0.4c-2.5,0-4.5-0.8-6-2.3
			c-1.5-1.5-2.2-3.9-2.2-7.2v-20.7h-5.4v-4.6h5.4v-8.2H219.4z"/>
		<path fill="#FFFFFF" d="M241.9,551.7c-4.9,0-8.7-1.6-11.5-4.7c-2.7-3.1-4.1-7.3-4.1-12.4v-1.4c0-4.9,1.4-9,4.2-12.2
			c2.8-3.2,6.3-4.8,10.4-4.8c4.6,0,8,1.4,10.3,4.3c2.3,2.8,3.4,6.6,3.4,11.3v3.3h-21.8l-0.1,0.2c0,3.4,0.8,6.2,2.3,8.3
			c1.5,2.1,3.8,3.2,6.9,3.2c2.1,0,4-0.3,5.5-0.9c1.6-0.6,3-1.4,4.1-2.5l2.4,4c-1.2,1.2-2.8,2.2-4.8,3
			C247.1,551.3,244.7,551.7,241.9,551.7z M240.9,521.2c-2.2,0-4,0.8-5.4,2.5c-1.4,1.7-2.3,3.8-2.6,6.4l0.1,0.2h15.4v-0.5
			c0-2.5-0.6-4.5-1.8-6.2C245.3,522,243.4,521.2,240.9,521.2z"/>
		<path fill="#FFFFFF" d="M272.9,522.4l-3.2-0.2c-1.6,0-3,0.4-4.2,1.2c-1.1,0.8-2,1.9-2.6,3.3v24.4h-6.2v-34.2h5.6l0.6,5
			c1-1.8,2.2-3.1,3.6-4.1c1.4-1,3.1-1.5,4.9-1.5c0.5,0,0.9,0,1.3,0.1c0.4,0.1,0.8,0.2,1,0.2L272.9,522.4z"/>
		<path fill="#FFFFFF" d="M308.1,536.4l0.1,0.2c0.1,4.3-1.4,7.9-4.5,10.8c-3.1,2.9-7.2,4.4-12.3,4.4c-5.2,0-9.4-1.8-12.7-5.5
			c-3.3-3.7-4.9-8.4-4.9-14V524c0-5.7,1.6-10.3,4.9-14c3.3-3.7,7.5-5.5,12.7-5.5c5.2,0,9.3,1.4,12.4,4.2c3.1,2.8,4.6,6.4,4.5,11
			l-0.1,0.2h-6c0-3.2-0.9-5.8-2.8-7.6c-1.9-1.9-4.6-2.8-8-2.8c-3.5,0-6.2,1.4-8.3,4.2c-2.1,2.8-3.1,6.3-3.1,10.4v8.2
			c0,4.2,1,7.7,3.1,10.5c2.1,2.8,4.8,4.2,8.3,4.2c3.5,0,6.1-0.9,8-2.8c1.9-1.9,2.8-4.4,2.8-7.7H308.1z"/>
		<path fill="#FFFFFF" d="M331.6,551.1c-0.2-1-0.4-1.9-0.5-2.7c-0.1-0.8-0.2-1.6-0.2-2.4c-1.2,1.6-2.7,3-4.5,4.1
			c-1.9,1.1-3.9,1.7-6,1.7c-3.6,0-6.3-0.9-8.1-2.7c-1.9-1.8-2.8-4.3-2.8-7.5c0-3.3,1.3-5.8,4-7.7s6.2-2.8,10.8-2.8h6.8v-3.4
			c0-2-0.6-3.6-1.8-4.8c-1.2-1.2-2.9-1.8-5.2-1.8c-2,0-3.7,0.5-4.9,1.5c-1.2,1-1.9,2.2-1.9,3.6l-5.9,0.1l-0.1-0.2
			c-0.1-2.5,1-4.8,3.5-6.8c2.5-2.1,5.7-3.1,9.6-3.1c3.9,0,7,1,9.3,3c2.4,2,3.5,4.8,3.5,8.5v16.4c0,1.2,0.1,2.4,0.2,3.5
			c0.1,1.1,0.4,2.3,0.7,3.3H331.6z M321.3,546.5c2.3,0,4.3-0.6,6.1-1.7c1.8-1.2,3-2.5,3.5-4v-5.6h-7c-2.5,0-4.5,0.6-6,1.9
			c-1.5,1.3-2.3,2.7-2.3,4.4c0,1.5,0.5,2.7,1.4,3.6C318,546.1,319.4,546.5,321.3,546.5z"/>
		<path fill="#FFFFFF" d="M357.4,522.4l-3.2-0.2c-1.6,0-3,0.4-4.2,1.2c-1.1,0.8-2,1.9-2.6,3.3v24.4h-6.2v-34.2h5.6l0.6,5
			c1-1.8,2.2-3.1,3.6-4.1c1.4-1,3.1-1.5,4.9-1.5c0.5,0,0.9,0,1.3,0.1c0.4,0.1,0.8,0.2,1,0.2L357.4,522.4z"/>
		<path fill="#FFFFFF" d="M357,534.6c0-5.5,1.2-9.9,3.5-13.3c2.3-3.4,5.6-5.1,9.9-5.1c2,0,3.8,0.4,5.3,1.1c1.5,0.7,2.9,1.8,4,3.2
			v-18.8h6.2v49.2h-4.8l-0.9-4.3c-1.1,1.6-2.5,2.9-4.1,3.7c-1.6,0.8-3.5,1.3-5.7,1.3c-4.2,0-7.4-1.5-9.8-4.5s-3.5-7-3.5-11.9V534.6z
			 M363.3,535.3c0,3.5,0.7,6.2,2.1,8.3c1.4,2.1,3.6,3.1,6.6,3.1c1.9,0,3.4-0.4,4.7-1.3c1.3-0.8,2.3-2,3.1-3.5v-15.9
			c-0.8-1.4-1.8-2.5-3.1-3.4c-1.3-0.8-2.8-1.2-4.6-1.2c-3,0-5.2,1.2-6.6,3.7c-1.4,2.5-2.1,5.7-2.1,9.6V535.3z"/>
	</g>
</g>
</svg>
